<svg version="1.1" xmlns="http://www.w3.org/2000/svg" xmlns:xlink="http://www.w3.org/1999/xlink" width="45.52908" height="62.55135"><g transform="translate(-13.6,-156.11667)"><g data-paper-data="{&quot;isPaintingLayer&quot;:true}" fill="none" fill-rule="nonzero" stroke="none" stroke-width="none" stroke-linecap="butt" stroke-linejoin="miter" stroke-miterlimit="10" stroke-dasharray="" stroke-dashoffset="0" font-family="none" font-weight="none" font-size="none" text-anchor="none" style="mix-blend-mode: normal"><path d="M13.6,200.91667v-44.8h44.4v44.8z" data-paper-data="{&quot;origPos&quot;:null}" fill="#000000" stroke="none" stroke-width="0"/><g data-paper-data="{&quot;origPos&quot;:null}" stroke-width="0"><path d="M22.95239,191.75868c0,0 0,-21.17181 0,-25.00872c0,-1.50565 -0.05752,-2.88628 0.96248,-4.09897c1.14769,-1.3645 2.64033,-1.39914 4.57671,-1.39914c6.71083,0 10.55776,0 15.27258,0c1.76588,0 3.22401,-0.27332 4.49384,0.80031c1.42052,1.20103 1.45629,2.87498 1.45629,4.60329c0,5.22335 0,25.10323 0,25.10323z" data-paper-data="{&quot;origPos&quot;:null}" fill="#ffffff" stroke="#eaeef2"/><path d="M49.71429,166.88741c0,0 0,19.87987 0,25.10323c0,1.72831 -0.03577,3.40227 -1.45629,4.60329c-1.26983,1.07362 -2.72796,0.80031 -4.49384,0.80031c-4.71482,0 -8.56175,0 -15.27258,0c-1.93639,0 -3.42901,-0.03464 -4.57671,-1.39914c-1.02,-1.21268 -0.96248,-2.59333 -0.96248,-4.09897c0,-3.83692 0,-25.00872 0,-25.00872z" data-paper-data="{&quot;origPos&quot;:null,&quot;index&quot;:null}" fill="#ffffff" stroke="#eaeef2"/><path d="M24.7442,191.73009v-26.5359h23.16667v26.5359z" data-paper-data="{&quot;origPos&quot;:null}" fill="#000000" stroke="none"/><path d="M34.23138,194.73651c0,-1.15059 0.93274,-2.08333 2.08333,-2.08333c1.15059,0 2.08333,0.93274 2.08333,2.08333c0,1.15059 -0.93274,2.08333 -2.08333,2.08333c-1.15059,0 -2.08333,-0.93274 -2.08333,-2.08333z" data-paper-data="{&quot;origPos&quot;:null}" fill="#000000" stroke="none"/><path d="M31.6224,164.04419v-1.15385h9.46154v1.15385z" data-paper-data="{&quot;origPos&quot;:null}" fill="#000000" stroke="none"/></g><text transform="translate(14.5125,214.50675) scale(0.20936,0.20936)" font-size="40" xml:space="preserve" data-paper-data="{&quot;origPos&quot;:null}" fill="#ffffff" fill-rule="nonzero" stroke="none" stroke-width="1" stroke-linecap="butt" stroke-linejoin="miter" stroke-miterlimit="10" stroke-dasharray="" stroke-dashoffset="0" font-family="Sans Serif" font-weight="normal" text-anchor="start" style="mix-blend-mode: normal"><tspan x="0" dy="0">mobile ver.</tspan></text><text transform="translate(18.42339,206.00174) scale(0.20936,0.20936)" font-size="40" xml:space="preserve" data-paper-data="{&quot;origPos&quot;:null}" fill="#ffffff" fill-rule="nonzero" stroke="none" stroke-width="1" stroke-linecap="butt" stroke-linejoin="miter" stroke-miterlimit="10" stroke-dasharray="" stroke-dashoffset="0" font-family="Sans Serif" font-weight="normal" text-anchor="start" style="mix-blend-mode: normal"><tspan x="0" dy="0">switch to</tspan><tspan x="0" dy="48px"> </tspan></text></g></g></svg>