<svg version="1.1" xmlns="http://www.w3.org/2000/svg" xmlns:xlink="http://www.w3.org/1999/xlink" width="26" height="26"><g transform="translate(-227,-167)"><g data-paper-data="{&quot;isPaintingLayer&quot;:true}" fill="none" fill-rule="nonzero" stroke="none" stroke-width="none" stroke-linecap="butt" stroke-linejoin="miter" stroke-miterlimit="10" stroke-dasharray="" stroke-dashoffset="0" font-family="none" font-weight="none" font-size="none" text-anchor="none" style="mix-blend-mode: normal"><path d="M240,191.625c-6.42031,0 -11.625,-5.20469 -11.625,-11.625c0,-6.42031 5.20469,-11.625 11.625,-11.625c6.42031,0 11.625,5.20469 11.625,11.625c0,6.42031 -5.20469,11.625 -11.625,11.625z" data-paper-data="{&quot;origPos&quot;:null,&quot;index&quot;:null}" fill="#b2b2b2" stroke="none" stroke-width="0"/><path d="M240,191.875c-6.14417,0 -11.125,-4.84092 -11.125,-10.8125c0,-5.97158 4.98083,-10.8125 11.125,-10.8125c6.14417,0 11.125,4.84092 11.125,10.8125c0,5.97158 -4.98083,10.8125 -11.125,10.8125z" data-paper-data="{&quot;origPos&quot;:null,&quot;index&quot;:null}" fill="#d8d8d8" stroke="none" stroke-width="0"/><path d="M240,192c-6.62742,0 -12,-5.37258 -12,-12c0,-6.62742 5.37258,-12 12,-12c6.62742,0 12,5.37258 12,12c0,6.62742 -5.37258,12 -12,12z" data-paper-data="{&quot;origPos&quot;:null,&quot;index&quot;:null}" fill="none" stroke="#ffffff" stroke-width="2"/><path d="M236.06358,180l6.12284,-3.24784v6.49569z" data-paper-data="{&quot;origRot&quot;:0,&quot;origPos&quot;:null,&quot;index&quot;:null}" fill="#3a3a3a" stroke="none" stroke-width="0"/></g></g></svg>